<svg width="400" height="400" viewBox="0 0 400 400" xmlns="http://www.w3.org/2000/svg">
  <!-- Background Circle (World) -->
  <circle cx="200" cy="200" r="190" fill="url(#worldGradient)" stroke="#667eea" stroke-width="4"/>
  
  <!-- Gradient Definitions -->
  <defs>
    <radialGradient id="worldGradient" cx="0.3" cy="0.3">
      <stop offset="0%" style="stop-color:#4ecdc4;stop-opacity:1" />
      <stop offset="40%" style="stop-color:#45b7d1;stop-opacity:1" />
      <stop offset="80%" style="stop-color:#667eea;stop-opacity:1" />
      <stop offset="100%" style="stop-color:#764ba2;stop-opacity:1" />
    </radialGradient>
    
    <linearGradient id="continentGradient" x1="0%" y1="0%" x2="100%" y2="100%">
      <stop offset="0%" style="stop-color:#66bb6a;stop-opacity:1" />
      <stop offset="100%" style="stop-color:#4caf50;stop-opacity:1" />
    </linearGradient>
    
    <radialGradient id="cloudGradient" cx="0.3" cy="0.3">
      <stop offset="0%" style="stop-color:#ffffff;stop-opacity:0.9" />
      <stop offset="100%" style="stop-color:#e3f2fd;stop-opacity:0.7" />
    </radialGradient>
  </defs>
  
  <!-- Continents -->
  <path d="M 80 120 Q 140 100 180 130 L 170 180 Q 120 160 80 120 Z" fill="url(#continentGradient)" opacity="0.8"/>
  <path d="M 220 80 Q 280 70 320 100 L 310 140 Q 250 120 220 80 Z" fill="url(#continentGradient)" opacity="0.8"/>
  <path d="M 60 220 Q 120 200 160 230 L 150 280 Q 90 260 60 220 Z" fill="url(#continentGradient)" opacity="0.8"/>
  <path d="M 240 250 Q 300 230 340 260 L 330 310 Q 270 290 240 250 Z" fill="url(#continentGradient)" opacity="0.8"/>
  <path d="M 120 320 Q 180 300 220 330 L 210 360 Q 150 350 120 320 Z" fill="url(#continentGradient)" opacity="0.8"/>
  
  <!-- Clouds -->
  <ellipse cx="100" cy="90" rx="25" ry="15" fill="url(#cloudGradient)"/>
  <ellipse cx="300" cy="120" rx="30" ry="18" fill="url(#cloudGradient)"/>
  <ellipse cx="80" cy="280" rx="20" ry="12" fill="url(#cloudGradient)"/>
  <ellipse cx="320" cy="300" rx="25" ry="15" fill="url(#cloudGradient)"/>
  
  <!-- Stars around the world -->
  <g fill="#ffd700" opacity="0.8">
    <path d="M 50 50 L 53 60 L 65 60 L 56 68 L 59 80 L 50 72 L 41 80 L 44 68 L 35 60 L 47 60 Z"/>
    <path d="M 350 70 L 352 78 L 361 78 L 355 84 L 357 93 L 350 88 L 343 93 L 345 84 L 339 78 L 348 78 Z"/>
    <path d="M 30 320 L 32 328 L 41 328 L 35 334 L 37 343 L 30 338 L 23 343 L 25 334 L 19 328 L 28 328 Z"/>
    <path d="M 370 320 L 373 330 L 385 330 L 376 338 L 379 350 L 370 342 L 361 350 L 364 338 L 355 330 L 367 330 Z"/>
  </g>
  
  <!-- Books floating around -->
  <g>
    <!-- Book 1 -->
    <g transform="translate(60,150) rotate(15)">
      <rect x="0" y="0" width="15" height="20" fill="#ff6b6b" rx="2"/>
      <rect x="2" y="2" width="11" height="16" fill="#ff8a80" opacity="0.7"/>
    </g>
    
    <!-- Book 2 -->
    <g transform="translate(340,180) rotate(-20)">
      <rect x="0" y="0" width="15" height="20" fill="#ffd700" rx="2"/>
      <rect x="2" y="2" width="11" height="16" fill="#ffeb3b" opacity="0.7"/>
    </g>
    
    <!-- Book 3 -->
    <g transform="translate(90,320) rotate(25)">
      <rect x="0" y="0" width="15" height="20" fill="#4ecdc4" rx="2"/>
      <rect x="2" y="2" width="11" height="16" fill="#80deea" opacity="0.7"/>
    </g>
    
    <!-- Book 4 -->
    <g transform="translate(320,80) rotate(-10)">
      <rect x="0" y="0" width="15" height="20" fill="#9c27b0" rx="2"/>
      <rect x="2" y="2" width="11" height="16" fill="#ba68c8" opacity="0.7"/>
    </g>
  </g>
  
  <!-- Magical sparkles -->
  <g fill="#ffd700" opacity="0.6">
    <circle cx="40" cy="200" r="2">
      <animate attributeName="opacity" values="0.3;1;0.3" dur="2s" repeatCount="indefinite"/>
    </circle>
    <circle cx="360" cy="200" r="2">
      <animate attributeName="opacity" values="0.3;1;0.3" dur="2.5s" repeatCount="indefinite"/>
    </circle>
    <circle cx="200" cy="40" r="2">
      <animate attributeName="opacity" values="0.3;1;0.3" dur="3s" repeatCount="indefinite"/>
    </circle>
    <circle cx="200" cy="360" r="2">
      <animate attributeName="opacity" values="0.3;1;0.3" dur="1.8s" repeatCount="indefinite"/>
    </circle>
  </g>
  
  <!-- Central glow effect -->
  <circle cx="200" cy="200" r="180" fill="none" stroke="url(#worldGradient)" stroke-width="2" opacity="0.3">
    <animate attributeName="stroke-opacity" values="0.1;0.5;0.1" dur="4s" repeatCount="indefinite"/>
  </circle>
</svg>