<?xml version="1.0" standalone="no"?><svg xmlns="http://www.w3.org/2000/svg" viewBox="0 0 1440 320"><path fill="#00983f" fill-opacity="0.6" d="M0,64L26.7,74.7C53.3,85,107,107,160,122.7C213.3,139,267,149,320,149.3C373.3,149,427,139,480,138.7C533.3,139,587,149,640,144C693.3,139,747,117,800,112C853.3,107,907,117,960,133.3C1013.3,149,1067,171,1120,165.3C1173.3,160,1227,128,1280,106.7C1333.3,85,1387,75,1413,69.3L1440,64L1440,0L1413.3,0C1386.7,0,1333,0,1280,0C1226.7,0,1173,0,1120,0C1066.7,0,1013,0,960,0C906.7,0,853,0,800,0C746.7,0,693,0,640,0C586.7,0,533,0,480,0C426.7,0,373,0,320,0C266.7,0,213,0,160,0C106.7,0,53,0,27,0L0,0Z"></path></svg>